<?xml version="1.0" standalone="no"?>
<!DOCTYPE svg PUBLIC "-//W3C//DTD SVG 20010904//EN"
 "http://www.w3.org/TR/2001/REC-SVG-20010904/DTD/svg10.dtd">
<svg version="1.0" xmlns="http://www.w3.org/2000/svg"
 width="350.000000pt" height="350.000000pt" viewBox="0 0 350.000000 350.000000"
 preserveAspectRatio="xMidYMid meet">
<metadata>
Created by potrace 1.14, written by Peter Selinger 2001-2017
</metadata>
<g transform="translate(0.000000,350.000000) scale(0.100000,-0.100000)"
fill="#000000" stroke="none">
<path d="M1049 3363 c21 -32 48 -74 60 -93 11 -19 21 -28 21 -19 0 19 -98 169
-110 169 -5 0 8 -26 29 -57z"/>
<path d="M970 3371 c0 -5 -11 -22 -23 -38 -26 -31 -87 -199 -87 -238 0 -13 -6
-30 -14 -37 -16 -15 -4 -58 26 -97 18 -23 24 -71 11 -84 -3 -4 -15 0 -25 10
-28 25 -24 -4 7 -49 27 -39 35 -72 13 -50 -26 26 -40 14 -33 -29 6 -32 4 -40
-5 -34 -10 6 -12 -5 -7 -53 6 -54 5 -62 -11 -63 -45 -3 -47 -4 -44 -28 2 -15
0 -21 -7 -17 -23 15 -10 -39 16 -66 33 -34 43 -35 43 -4 0 20 12 30 69 57 44
21 67 38 64 46 -3 8 3 13 16 13 12 0 29 9 38 20 10 11 23 20 31 20 7 0 29 16
49 35 20 19 45 35 55 35 11 0 26 7 34 15 9 8 27 15 41 15 19 0 23 3 16 13 -6
6 -13 35 -16 63 -7 60 -51 223 -76 279 -10 22 -30 73 -46 113 -32 86 -82 156
-113 160 -12 2 -22 -1 -22 -7z m-60 -298 c0 -24 -4 -43 -9 -43 -18 0 -22 20
-15 66 8 56 24 40 24 -23z m216 36 c3 -6 1 -16 -5 -22 -8 -8 -15 -6 -26 9 -22
29 -20 47 4 34 11 -5 23 -15 27 -21z m19 -113 c7 -19 8 -40 4 -48 -5 -7 -5
-23 -2 -36 5 -22 4 -23 -14 -13 -26 13 -37 81 -24 151 2 11 26 -23 36 -54z m1
-150 c3 -12 6 -42 7 -66 2 -36 -1 -45 -17 -48 -20 -4 -48 18 -31 24 6 3 10 30
9 63 -2 48 1 59 12 54 8 -3 17 -15 20 -27z"/>
<path d="M2089 3342 c-33 -36 -51 -71 -105 -202 -40 -99 -83 -248 -91 -313 -3
-32 -10 -60 -14 -63 -18 -11 -8 -24 15 -18 14 3 29 0 39 -10 8 -9 23 -16 32
-16 8 0 34 -17 58 -37 49 -44 98 -73 122 -73 9 0 15 -6 12 -12 -4 -15 41 -45
93 -64 28 -9 36 -19 40 -43 l5 -31 33 31 c33 31 42 52 19 43 -11 -4 -13 6 -10
43 2 26 0 43 -4 38 -4 -6 -21 -11 -36 -12 -22 -1 -27 3 -22 15 3 9 9 36 12 61
5 35 3 42 -7 36 -10 -6 -11 2 -6 39 8 49 6 52 -26 35 -30 -16 -30 -7 2 41 30
46 40 74 18 52 -7 -7 -18 -12 -26 -12 -19 0 -10 79 11 95 21 16 27 54 15 104
-25 106 -71 243 -83 247 -7 3 -19 19 -25 35 -16 38 -31 37 -71 -9z m-49 -215
c0 -7 -6 -22 -14 -33 -12 -15 -17 -16 -27 -7 -10 10 -7 16 12 32 29 24 29 24
29 8z m195 -84 c-3 -13 -10 -21 -15 -18 -11 7 -13 49 -3 85 6 24 7 24 16 -9 4
-19 6 -45 2 -58z m-220 -63 c-3 -57 -16 -90 -36 -90 -13 0 -3 128 11 145 21
25 28 8 25 -55z m-8 -160 c-2 -35 1 -61 7 -64 18 -6 -10 -28 -30 -24 -16 3
-19 12 -18 56 1 35 8 60 20 73 9 10 19 19 20 19 2 0 2 -27 1 -60z"/>
<path d="M1280 2827 c0 -8 9 -22 20 -32 19 -18 20 -17 20 1 0 11 -9 25 -20 32
-16 10 -20 10 -20 -1z"/>
<path d="M1817 2822 c-18 -19 -23 -42 -9 -42 4 0 16 14 25 30 20 33 10 40 -16
12z"/>
<path d="M1804 2738 c9 -28 -27 -46 -83 -40 -34 3 -65 -2 -104 -16 -55 -21
-55 -21 -108 -1 -31 11 -79 19 -113 19 -40 0 -65 5 -77 15 -22 21 -68 10 -79
-19 -4 -12 -15 -28 -24 -35 -23 -19 -20 -31 9 -31 16 0 25 -6 25 -15 0 -19 -2
-19 61 10 44 20 61 23 92 16 21 -5 44 -15 53 -22 13 -11 12 -15 -5 -33 -23
-24 -25 -17 42 -114 16 -22 30 -55 31 -74 4 -43 27 -118 36 -118 8 0 11 12 28
100 10 53 25 83 63 128 32 36 37 63 14 82 -21 17 -19 25 10 38 40 18 106 14
140 -8 36 -24 55 -25 55 -5 0 9 9 15 25 15 30 0 32 11 5 35 -11 10 -22 26 -25
35 -3 10 -18 21 -33 25 -15 4 -31 12 -35 18 -6 8 -7 6 -3 -5z"/>
<path d="M1063 2602 c-23 -15 -61 -41 -85 -57 -23 -17 -51 -34 -62 -38 -18 -7
-18 -18 -1 -59 6 -15 2 -18 -22 -18 -37 0 -45 -8 -32 -32 8 -14 5 -25 -10 -44
-12 -15 -18 -31 -14 -37 3 -6 1 -7 -5 -3 -7 4 -12 21 -12 37 0 18 -4 28 -10
24 -22 -13 -9 -55 28 -89 36 -34 37 -38 35 -97 -1 -34 -4 -74 -7 -88 -6 -23
-5 -24 5 -7 6 10 14 48 17 85 5 54 7 60 13 36 17 -74 10 -127 -23 -178 -31
-49 -31 -50 -15 -79 9 -16 17 -42 17 -56 l-1 -27 -15 28 c-16 29 -34 28 -34
-3 0 -10 11 -42 25 -72 30 -63 30 -82 5 -128 l-19 -35 -1 57 c0 67 -26 127
-54 128 -16 0 -18 5 -12 43 4 23 11 46 17 51 12 13 12 36 -1 36 -6 0 -12 -6
-14 -12 -2 -7 -12 -40 -21 -72 l-18 -59 23 -17 c21 -16 23 -26 22 -86 0 -38
-4 -100 -8 -137 -5 -55 -3 -77 11 -108 10 -21 21 -36 25 -34 11 7 25 -14 39
-55 19 -56 70 -134 97 -147 25 -12 26 -8 7 61 -8 27 14 11 33 -26 9 -16 13
-40 10 -53 -4 -16 6 -40 37 -85 41 -62 42 -63 47 -35 5 27 7 24 23 -27 9 -31
24 -62 33 -69 9 -7 28 -35 42 -62 46 -84 51 -92 64 -92 8 0 19 -33 30 -90 20
-109 20 -105 9 -105 -5 0 -23 29 -40 65 -17 36 -44 93 -61 128 -16 35 -55 90
-90 127 -34 36 -73 83 -87 105 -85 135 -128 195 -131 183 -5 -23 47 -170 73
-208 13 -19 44 -96 68 -170 25 -74 55 -156 66 -182 21 -49 151 -215 198 -251
l26 -21 -5 22 c-4 12 -2 20 2 17 10 -6 40 -93 40 -115 0 -33 -39 -15 -95 43
-34 36 -68 62 -89 68 -28 8 -38 18 -53 54 -11 27 -24 44 -33 42 -8 -1 -17 9
-21 23 -4 14 -14 48 -23 75 l-15 50 3 -40 c2 -22 9 -75 16 -117 8 -50 9 -86 3
-104 -9 -26 -12 -20 -31 63 -12 50 -22 99 -22 107 0 9 -9 25 -19 35 -11 11
-27 32 -35 48 l-15 28 -1 -37 c0 -34 -20 -68 -40 -68 -5 0 -13 12 -18 28 l-10
27 -1 -27 c-1 -36 -19 -45 -37 -19 -18 25 -34 27 -34 6 0 -8 -4 -15 -10 -15
-15 0 -12 -66 3 -79 8 -6 16 -8 19 -6 3 3 25 -28 49 -70 30 -54 58 -87 95
-115 29 -22 69 -56 88 -76 19 -20 39 -33 45 -30 5 4 15 -2 21 -13 9 -17 15
-19 36 -10 32 12 50 -1 59 -42 4 -16 10 -31 15 -34 11 -7 54 -101 63 -137 l7
-28 266 0 265 0 26 28 c14 15 37 45 51 67 13 21 47 60 73 86 27 26 49 52 49
58 0 24 -28 8 -82 -50 -32 -33 -58 -55 -58 -48 0 8 -4 8 -16 -2 -13 -10 -17
-10 -24 1 -7 11 -11 11 -24 1 -9 -8 -16 -19 -16 -27 0 -7 -19 -31 -41 -53 -35
-33 -44 -38 -55 -26 -29 28 -5 76 81 161 94 94 125 134 125 162 0 29 -17 36
-25 11 -8 -24 -73 -99 -86 -99 -16 0 -10 44 10 75 11 17 56 73 101 125 45 52
89 108 97 125 9 16 33 55 54 86 20 31 45 82 54 114 10 32 28 68 41 80 13 12
39 65 58 121 20 54 44 110 55 124 10 14 21 37 26 50 9 33 47 114 55 120 4 3 9
30 12 62 4 55 4 56 -13 34 -9 -12 -31 -59 -49 -104 -29 -76 -50 -110 -37 -61
3 11 3 27 0 35 -6 18 -38 -20 -98 -117 -25 -40 -77 -112 -116 -160 -39 -47
-92 -126 -118 -174 -49 -94 -79 -123 -68 -66 6 30 48 129 68 161 5 8 21 37 35
65 15 27 32 54 39 60 7 5 21 32 31 60 16 42 19 46 24 26 5 -22 9 -19 44 32 27
40 39 68 41 98 2 27 10 48 24 62 l22 22 -6 -30 c-4 -16 -9 -39 -11 -50 -5 -19
-4 -19 9 -2 8 9 19 17 25 17 12 0 64 82 82 130 7 19 21 42 30 51 10 8 25 30
35 49 15 30 17 51 11 175 l-7 141 25 12 c26 12 32 23 19 36 -10 9 -33 78 -33
98 0 17 -17 34 -26 26 -2 -3 2 -20 10 -39 27 -68 28 -86 3 -93 -35 -9 -61 -74
-53 -133 l7 -48 -21 24 c-26 30 -26 90 0 141 11 22 20 54 20 72 l-1 33 -19
-24 -20 -23 0 25 c0 14 5 29 10 32 17 10 11 46 -14 89 -32 56 -38 102 -22 161
l14 50 1 -65 c1 -36 5 -72 11 -80 5 -9 7 14 3 62 l-6 76 36 37 c40 41 54 72
39 87 -6 6 -12 -3 -16 -24 -7 -30 -8 -31 -16 -12 -5 12 -14 25 -20 29 -7 4 -9
18 -5 35 5 23 2 30 -14 35 -12 3 -26 3 -32 -1 -9 -5 -10 -1 -6 14 4 12 10 31
13 42 4 13 2 20 -8 20 -8 0 -41 19 -73 43 -75 53 -136 89 -142 83 -3 -3 17
-27 43 -54 59 -59 144 -236 144 -298 l-1 -39 -13 31 c-12 27 -20 32 -62 37
-27 3 -55 0 -66 -6 -15 -10 -24 -5 -57 27 l-39 38 -40 -21 c-22 -11 -43 -25
-47 -31 -13 -21 -67 -42 -78 -31 -8 8 7 30 55 79 67 68 75 92 32 92 -14 0 -27
6 -30 14 -8 20 -64 39 -79 26 -6 -5 -22 -32 -35 -60 -22 -47 -23 -56 -13 -123
5 -39 8 -74 7 -76 -2 -2 -16 1 -31 8 -21 10 -29 9 -41 -2 -13 -13 -7 -17 43
-28 47 -10 61 -18 74 -42 26 -46 61 -92 61 -79 0 20 27 14 59 -14 36 -30 38
-44 11 -69 -11 -10 -20 -29 -20 -43 0 -14 -7 -34 -17 -44 -15 -17 -14 -18 29
-18 28 0 50 -6 58 -15 10 -12 9 -15 -5 -15 -20 0 -105 -40 -105 -49 0 -3 25
-26 55 -51 29 -24 57 -55 60 -68 8 -33 -1 -39 -15 -10 -15 29 -61 78 -72 78
-5 0 -7 -4 -3 -10 10 -17 -6 -59 -21 -53 -17 6 -18 35 -3 50 16 16 -6 26 -41
18 -35 -8 -35 -7 -15 -45 8 -16 15 -44 14 -62 0 -18 2 -53 6 -78 11 -78 16
-123 20 -170 2 -25 6 -54 10 -66 5 -15 -1 -30 -20 -50 -26 -29 -27 -29 -20 -4
16 61 17 70 6 70 -6 0 -11 -12 -11 -26 0 -29 -16 -64 -30 -64 -11 0 -11 158
-1 165 11 6 5 53 -8 69 -10 12 -9 16 7 25 11 6 23 7 27 3 5 -4 -2 11 -15 33
-17 30 -23 56 -23 106 l-1 66 -81 0 c-44 0 -87 1 -95 2 -8 1 -31 -2 -50 -7
-39 -11 -31 -13 65 -17 33 -1 66 -3 73 -4 21 -2 11 -75 -10 -79 -14 -3 -18 3
-18 23 0 16 -4 24 -11 20 -6 -4 -8 -13 -6 -19 7 -18 -9 -40 -22 -32 -6 4 -11
20 -11 37 0 19 -5 29 -15 29 -11 0 -14 -7 -10 -22 6 -27 -8 -53 -24 -44 -6 4
-11 18 -11 32 0 13 -4 24 -10 24 -5 0 -10 -13 -10 -30 0 -34 -14 -39 -30 -10
-11 21 -10 71 2 81 5 3 -14 10 -41 15 l-49 10 0 -55 c-1 -31 -4 -85 -7 -121
-3 -36 -2 -91 3 -123 7 -42 6 -60 -2 -63 -7 -3 -10 -25 -8 -57 3 -49 2 -51
-13 -32 -9 11 -15 32 -12 48 3 25 2 26 -11 13 -13 -13 -13 -20 -3 -42 15 -33
5 -46 -15 -19 -12 15 -14 42 -9 123 3 57 9 111 13 120 5 9 9 37 10 62 1 25 8
70 16 100 16 59 11 70 -31 70 -25 0 -29 -10 -12 -27 8 -8 8 -17 -1 -33 -13
-25 -27 -17 -32 20 -1 14 -7 29 -13 33 -6 5 -1 14 13 24 12 8 22 19 22 24 0
12 -75 49 -101 49 -18 0 -19 2 -9 15 8 9 30 15 56 15 46 0 54 9 29 30 -8 7
-15 25 -15 41 0 17 -8 34 -21 42 -17 13 -19 19 -10 36 17 31 57 54 80 46 17
-5 26 4 51 49 27 48 37 56 68 62 57 9 72 14 72 25 0 16 -27 21 -50 9 -12 -6
-23 -10 -25 -8 -2 2 1 39 6 82 8 78 8 81 -22 134 -28 48 -34 53 -58 47 -14 -3
-31 -13 -37 -21 -6 -7 -21 -14 -32 -14 -12 0 -26 -8 -31 -18 -8 -15 1 -29 50
-79 32 -34 59 -66 59 -72 0 -24 -21 -18 -85 24 -37 25 -74 45 -81 45 -7 0 -23
-13 -36 -30 -25 -35 -53 -46 -73 -30 -7 6 -33 10 -57 8 -34 -2 -45 -8 -55 -28
-13 -25 -13 -25 -13 9 0 19 12 59 26 89 14 30 34 75 45 99 10 24 42 68 70 98
56 59 49 69 -18 27z m103 -350 c-10 -10 -29 15 -21 28 6 9 10 8 17 -4 6 -10 7
-20 4 -24z m802 16 c-2 -13 -11 -24 -21 -26 -15 -3 -16 0 -6 22 15 32 32 34
27 4z m-750 -40 c50 15 52 15 52 -3 0 -23 -34 -35 -95 -35 -65 0 -74 -23 -12
-28 20 -2 37 -7 37 -12 0 -5 8 -10 17 -12 13 -2 10 -6 -11 -16 -15 -7 -24 -8
-21 -2 10 16 -12 12 -55 -10 -22 -11 -51 -38 -65 -59 -27 -44 -58 -59 -82 -40
-13 11 -17 10 -29 -5 -7 -10 -15 -24 -17 -30 -2 -6 -7 -8 -11 -5 -4 4 4 40 18
81 14 41 26 89 26 106 0 37 15 47 87 57 39 5 52 11 56 27 5 19 6 19 36 -3 27
-20 34 -21 69 -11z m800 -5 c9 -7 28 -13 42 -13 15 0 42 -5 59 -11 29 -10 32
-15 27 -40 -3 -18 4 -53 19 -94 29 -77 34 -131 8 -77 -19 36 -25 39 -43 17
-11 -13 -15 -13 -41 0 -16 9 -35 28 -43 43 -18 36 -33 47 -81 68 -37 15 -38
15 -25 -1 11 -13 1 -11 -38 9 -28 14 -52 29 -52 32 0 2 8 0 19 -5 19 -11 84
-4 114 11 30 16 9 27 -50 27 -43 -1 -60 3 -76 20 -28 28 -18 34 35 20 41 -11
48 -11 74 9 19 14 30 17 33 9 2 -7 10 -18 19 -24z m-882 -138 c-11 -8 -22 -12
-25 -9 -6 6 19 24 34 24 6 -1 1 -7 -9 -15z m860 0 c10 -8 15 -14 9 -14 -5 0
-19 6 -29 14 -11 8 -15 15 -10 15 6 0 19 -7 30 -15z m-1046 -177 c0 -5 -4 -8
-10 -8 -5 0 -10 10 -10 23 0 18 2 19 10 7 5 -8 10 -18 10 -22z m1231 1 c-9
-22 -10 -22 -10 -3 -1 11 2 24 6 27 12 12 14 0 4 -24z m-1178 -90 c24 -42 11
-51 -19 -14 -27 34 -30 45 -11 45 6 0 20 -14 30 -31z m1147 18 c0 -7 -13 -26
-30 -42 -35 -34 -38 -29 -9 19 21 37 39 47 39 23z m-1024 -111 c21 -75 16 -87
-12 -26 -20 43 -24 63 -18 90 7 31 8 32 12 10 2 -14 10 -47 18 -74z m877 -22
c-34 -84 -36 -35 -2 60 13 38 14 38 17 12 2 -15 -5 -47 -15 -72z m-795 27
c-12 -15 -29 -37 -36 -47 -11 -17 -12 -17 -6 6 7 27 42 70 57 70 5 0 -2 -13
-15 -29z m-168 -24 c0 -36 41 -119 109 -221 41 -63 46 -67 49 -44 2 15 -10 52
-26 85 -34 66 -47 113 -32 113 5 0 12 -12 16 -27 3 -16 16 -48 29 -73 13 -25
31 -78 39 -119 8 -40 28 -98 43 -129 15 -31 29 -61 31 -66 3 -5 -9 0 -26 12
-22 16 -36 40 -51 85 -14 41 -41 87 -80 136 -33 41 -71 98 -84 125 -25 51 -45
172 -26 161 5 -4 9 -21 9 -38z m1050 12 c0 -11 -4 -18 -10 -14 -5 3 -7 12 -3
20 7 21 13 19 13 -6z m-652 -26 c-2 -27 -8 -39 -20 -41 -14 -3 -18 4 -18 31 0
37 6 47 27 47 10 0 13 -11 11 -37z m276 15 c7 -12 6 -25 -3 -45 -11 -25 -14
-26 -25 -11 -9 13 -13 52 -7 76 2 8 25 -6 35 -20z m342 -126 c-14 -27 -52 -83
-84 -124 -35 -44 -66 -96 -77 -128 -13 -38 -33 -69 -69 -104 -35 -36 -45 -42
-31 -21 49 76 76 136 91 205 9 41 29 103 45 137 16 34 29 69 29 78 0 8 5 15
10 15 18 0 10 -34 -26 -108 -19 -41 -34 -83 -32 -95 3 -17 17 -2 64 69 33 51
69 110 79 133 18 36 20 38 23 16 2 -13 -8 -46 -22 -73z m-1163 58 c-7 -25 -19
-34 -28 -20 -8 13 13 52 25 45 4 -3 6 -14 3 -25z m1355 -9 c3 -16 -1 -22 -10
-19 -7 3 -15 15 -16 27 -3 16 1 22 10 19 7 -3 15 -15 16 -27z m-998 -50 c0
-11 -3 -11 -15 -1 -8 7 -15 22 -15 33 0 20 0 20 15 1 8 -10 15 -25 15 -33z
m650 35 c0 -2 -8 -21 -17 -42 -14 -33 -18 -36 -21 -17 -4 24 13 63 28 63 6 0
10 -2 10 -4z m-470 -136 c4 0 11 10 14 23 6 21 7 21 21 3 8 -10 20 -16 28 -13
15 5 37 -30 37 -58 0 -8 4 -17 10 -20 16 -10 50 14 50 35 0 10 3 26 6 35 6 13
9 14 15 3 7 -10 13 -7 28 12 21 27 22 27 37 -10 10 -22 12 -19 24 38 8 34 18
62 23 62 5 0 6 -12 3 -27 -24 -99 -25 -111 -10 -158 16 -54 14 -65 -24 -150
-33 -75 -31 -72 -43 -55 -7 10 -8 1 -3 -31 5 -42 3 -48 -22 -68 -37 -29 -69
-36 -105 -21 -44 19 -62 50 -54 97 5 27 4 34 -4 23 -12 -18 -11 -19 -43 55
-40 92 -41 101 -22 151 15 39 16 54 6 108 -17 88 -13 103 5 29 9 -35 19 -63
23 -63z m-499 -34 c11 -71 6 -93 -16 -63 -15 21 -37 135 -29 149 13 21 35 -21
45 -86z m1290 23 c-13 -74 -30 -114 -41 -103 -11 11 5 126 21 157 20 36 31 4
20 -54z m-1201 -21 c0 -14 -18 -9 -24 8 -11 28 -6 39 9 20 8 -11 15 -23 15
-28z m1095 12 c-4 -12 -9 -19 -12 -17 -3 3 -2 15 2 27 4 12 9 19 12 17 3 -3 2
-15 -2 -27z m-725 -215 c0 -8 5 -15 10 -15 6 0 10 -11 10 -25 0 -27 -9 -32
-28 -13 -14 14 -16 68 -2 68 6 0 10 -7 10 -15z m350 -12 c-1 -27 -20 -63 -34
-63 -3 0 -6 14 -6 30 0 17 5 30 10 30 6 0 10 7 10 15 0 8 5 15 10 15 6 0 10
-12 10 -27z m-416 -39 c3 -8 2 -12 -4 -9 -6 3 -10 10 -10 16 0 14 7 11 14 -7z
m114 -66 c8 -18 22 -49 33 -68 11 -19 27 -50 36 -67 14 -27 23 -33 48 -33 29
0 34 6 81 98 27 53 50 99 51 101 2 2 6 1 10 -2 4 -4 -1 -24 -11 -44 -13 -27
-14 -39 -5 -47 8 -8 13 -8 16 2 9 24 23 11 23 -22 0 -61 -15 -86 -52 -86 -30
-1 -32 -2 -14 -15 22 -16 11 -39 -15 -32 -12 3 -19 0 -19 -9 0 -8 -6 -15 -12
-15 -81 -10 -136 0 -122 22 4 7 0 9 -14 5 -27 -9 -39 12 -16 29 21 16 23 14
-34 19 -20 2 -32 28 -32 74 0 40 13 57 23 30 3 -10 8 -10 17 -2 9 9 8 18 -4
42 -17 34 -20 52 -8 52 4 0 13 -15 20 -32z m-78 -33 c0 -33 -16 -39 -34 -13
-18 25 -21 42 -7 33 5 -3 12 -1 16 5 10 16 25 1 25 -25z m437 27 c10 8 9 1 -3
-25 -18 -38 -36 -44 -42 -13 -6 28 7 51 20 38 9 -9 15 -9 25 0z m-385 -235
c26 -37 91 -67 143 -67 91 0 153 57 186 169 l13 44 8 -29 c22 -81 -35 -183
-120 -217 -156 -62 -326 61 -295 215 6 31 7 31 26 -27 10 -33 28 -72 39 -88z
m-83 -159 c16 -42 23 -88 13 -88 -13 0 -32 47 -32 80 0 36 7 38 19 8z m484
-49 c-5 -19 -98 -109 -113 -109 -16 0 2 39 25 54 12 8 28 29 35 48 21 53 32
63 46 43 6 -9 10 -25 7 -36z m-397 -450 c17 -68 17 -79 0 -79 -17 0 -26 31
-26 94 0 60 7 56 26 -15z"/>
<path d="M1657 1381 c-9 -44 -9 -51 2 -51 13 0 21 39 12 63 -7 18 -9 17 -14
-12z"/>
<path d="M1441 1373 c-1 -17 4 -35 9 -38 12 -7 12 22 0 50 -7 17 -9 15 -9 -12z"/>
<path d="M1540 1333 c0 -10 3 -43 7 -73 l7 -55 7 40 c13 68 11 105 -6 105 -8
0 -15 -8 -15 -17z"/>
<path d="M3026 2385 c5 -22 9 -92 8 -155 0 -96 -5 -129 -27 -198 -33 -102 -33
-106 -2 -61 30 46 43 99 53 214 l7 90 28 -85 c15 -47 27 -102 27 -123 0 -21 5
-47 11 -58 14 -27 19 -225 7 -262 -13 -35 -30 -17 -22 23 3 16 0 13 -9 -9 -12
-31 -13 -26 -13 69 0 67 -4 105 -11 107 -6 2 -9 13 -6 23 3 11 2 37 -2 57 l-8
38 -22 -71 c-17 -55 -33 -81 -69 -119 -26 -26 -58 -70 -72 -96 -24 -49 -33
-106 -14 -94 6 3 10 1 10 -5 0 -6 -8 -13 -17 -16 -40 -13 -59 -27 -85 -64 -15
-22 -37 -40 -50 -42 -18 -2 -23 -10 -24 -32 -1 -28 -8 -36 -69 -79 -17 -12
-24 -25 -20 -36 3 -10 -8 -37 -25 -64 -16 -26 -25 -47 -20 -47 5 0 31 14 57
30 59 37 75 38 41 3 -21 -23 -78 -132 -78 -150 0 -3 16 5 36 18 l36 22 -12
-22 c-16 -30 -6 -37 24 -18 l24 16 -15 -30 c-8 -17 -30 -40 -49 -52 -42 -27
-45 -43 -3 -22 31 17 89 13 89 -6 0 -13 -38 -49 -52 -50 -76 -3 -101 -8 -115
-22 -16 -16 -16 -17 11 -17 20 0 27 -4 24 -17 -5 -29 -53 -37 -98 -17 -47 21
-49 27 -15 42 25 11 34 32 15 32 -5 0 -10 6 -10 13 -1 6 -24 26 -53 42 -53 31
-87 80 -90 132 -2 21 5 27 43 40 44 15 176 132 202 178 6 11 -16 -6 -49 -37
-68 -64 -177 -138 -204 -138 -21 0 -19 -26 6 -110 55 -181 66 -265 50 -368 -5
-35 -4 -56 2 -60 15 -10 40 -62 67 -139 23 -64 26 -98 29 -273 0 -14 -6 -64
-13 -111 -11 -71 -11 -97 -1 -143 7 -31 16 -56 20 -56 5 0 8 46 8 103 0 56 3
169 6 251 l6 149 -39 101 c-21 55 -44 116 -52 134 -12 32 -12 35 14 57 17 14
60 31 117 44 50 11 108 29 129 39 20 11 69 29 107 42 66 22 77 31 190 146 175
177 225 287 225 492 0 45 7 98 15 122 19 53 19 53 -5 45 -17 -6 -20 -2 -20 28
0 19 -4 47 -10 63 -5 16 -14 56 -19 89 -34 222 -94 426 -146 497 -17 22 -17
22 -9 -17z m143 -716 c0 8 4 12 7 8 12 -12 3 -220 -11 -254 -16 -39 -30 -44
-21 -8 9 36 -4 105 -20 105 -21 0 -27 45 -10 77 8 17 21 52 28 79 l12 49 7
-35 c3 -19 7 -29 8 -21z m-260 -79 c-12 -22 -25 -38 -27 -35 -5 4 37 75 44 75
3 0 -5 -18 -17 -40z m242 -267 c-22 -44 -65 -87 -80 -82 -9 4 83 119 95 119 2
0 -4 -17 -15 -37z m-111 -157 c0 -2 -8 -10 -17 -17 -16 -13 -17 -12 -4 4 13
16 21 21 21 13z m-70 -91 c0 -8 -64 -45 -77 -45 -24 0 -13 17 20 34 32 16 57
20 57 11z m-187 -136 c-9 -9 -235 -79 -256 -79 -5 0 -6 4 -2 9 7 12 92 36 155
45 25 4 56 13 70 21 30 17 48 19 33 4z m-226 -25 c-3 -3 -12 -4 -19 -1 -8 3
-5 6 6 6 11 1 17 -2 13 -5z m-67 -69 c0 -2 -9 -9 -20 -15 -16 -9 -20 -8 -20 5
0 8 9 15 20 15 11 0 20 -2 20 -5z"/>
<path d="M1448 2132 c-9 -9 -37 -35 -63 -56 -45 -38 -47 -41 -42 -83 3 -32 1
-43 -9 -43 -23 0 -16 -22 18 -57 27 -28 29 -34 18 -48 -12 -14 -11 -18 1 -26
8 -5 19 -9 25 -9 6 0 21 -11 34 -25 27 -29 56 -32 82 -8 13 12 21 14 30 5 8
-8 16 -7 30 1 16 10 21 9 29 -5 14 -26 52 -22 79 7 13 14 28 25 34 25 26 1 38
17 27 37 -8 17 -5 25 19 48 33 31 41 61 14 51 -13 -5 -15 -2 -9 11 26 61 15
83 -84 161 -39 31 -44 33 -71 22 -27 -11 -53 -10 -120 4 -16 3 -31 -1 -42 -12z
m75 -57 c31 -13 40 -13 69 -1 39 17 81 4 123 -38 50 -50 19 -85 -38 -42 -19
14 -39 26 -44 26 -14 0 -34 -55 -25 -66 4 -4 -6 0 -21 10 -26 16 -30 16 -53 1
-22 -14 -24 -14 -24 2 -1 10 -6 28 -13 41 l-13 22 -39 -30 c-22 -16 -46 -30
-52 -30 -21 0 -15 45 10 67 16 15 68 48 83 53 1 0 18 -7 37 -15z m-47 -135
c16 0 19 -46 3 -55 -18 -12 -59 4 -59 23 0 10 -6 24 -12 31 -11 11 -7 13 21 7
18 -3 40 -6 47 -6z m228 -12 c-14 -47 -49 -63 -73 -34 -17 20 -3 44 27 49 54
8 54 8 46 -15z"/>
<path d="M1372 2128 c-7 -7 -12 -19 -12 -27 0 -11 4 -10 20 4 21 19 26 35 12
35 -4 0 -13 -5 -20 -12z"/>
<path d="M1719 2121 c17 -31 33 -37 29 -10 -2 13 -11 25 -21 27 -16 3 -17 1
-8 -17z"/>
<path d="M2821 1705 c-35 -46 -70 -90 -78 -96 -25 -22 -56 -69 -40 -63 18 7
197 244 185 244 -2 0 -33 -38 -67 -85z"/>
<path d="M747 1708 c-17 -26 -31 -142 -16 -133 5 4 9 19 9 34 0 16 7 48 15 71
17 49 13 63 -8 28z"/>
<path d="M2356 1695 c9 -37 9 -166 0 -220 -7 -37 -6 -39 8 -21 9 11 19 35 22
53 9 49 -5 178 -22 200 -14 17 -15 16 -8 -12z"/>
<path d="M730 1498 c0 -44 -5 -53 -62 -119 -179 -205 -184 -217 -198 -510 -6
-110 -15 -198 -25 -234 -20 -67 -14 -84 8 -23 17 45 37 231 37 334 0 133 63
284 159 379 91 89 79 36 -14 -65 -34 -37 -44 -57 -54 -110 -7 -36 -18 -78 -23
-95 -6 -16 -15 -59 -19 -95 -4 -36 -17 -108 -29 -160 -11 -52 -18 -109 -15
-126 6 -35 -9 -83 -41 -134 -33 -53 -38 -86 -14 -107 15 -14 21 -38 26 -101 7
-78 6 -83 -21 -117 -29 -39 -29 -41 -3 -162 l11 -53 52 0 53 0 4 93 c3 50 2
94 -2 97 -4 3 1 43 11 90 10 47 18 105 19 130 0 44 56 219 73 231 5 4 2 48 -8
105 -9 55 -17 148 -17 209 0 92 4 118 22 158 23 51 70 233 70 270 0 40 17 2
40 -88 13 -49 27 -101 33 -115 l9 -25 14 30 c17 39 18 127 1 168 -8 18 -26 46
-40 63 -15 18 -27 42 -27 55 -1 13 -7 35 -15 49 -14 24 -14 24 -15 -22z"/>
<path d="M901 989 c-12 -41 -12 -42 25 -80 21 -22 42 -39 46 -39 15 0 8 86
-11 120 -26 50 -45 49 -60 -1z"/>
<path d="M2221 878 c-4 -13 -11 -41 -15 -63 -7 -39 -53 -190 -64 -210 -3 -5
-11 4 -18 20 l-12 30 -40 -86 c-22 -48 -45 -90 -51 -93 -13 -8 -51 -80 -51
-96 0 -21 48 15 94 73 26 31 51 57 55 57 13 0 61 74 71 111 40 133 65 348 31
257z"/>
<path d="M2356 735 c-22 -45 -28 -146 -9 -152 22 -8 34 36 31 115 l-3 77 -19
-40z"/>
<path d="M2387 438 c-6 -121 -10 -138 -37 -191 -16 -31 -26 -57 -21 -57 5 0
34 28 64 61 54 61 55 62 59 138 5 65 2 84 -18 129 -12 28 -27 52 -32 52 -5 0
-12 -60 -15 -132z"/>
<path d="M2175 470 c-10 -22 -16 -43 -13 -46 3 -2 13 14 22 37 22 54 15 61 -9
9z"/>
<path d="M397 441 c-4 -18 -6 -52 -6 -75 1 -37 2 -35 10 19 10 67 7 109 -4 56z"/>
<path d="M618 387 c-12 -29 -10 -63 3 -50 6 6 9 23 7 39 -2 24 -4 26 -10 11z"/>
<path d="M2301 350 c-22 -90 -50 -152 -92 -206 -69 -90 -46 -102 36 -19 46 46
55 61 55 91 0 19 5 54 11 78 6 23 9 58 7 77 -3 32 -4 31 -17 -21z"/>
<path d="M610 278 c-23 -89 -23 -85 -7 -65 21 25 28 21 17 -9 -6 -14 -17 -59
-26 -100 -8 -41 -18 -82 -21 -90 -4 -11 6 -14 51 -14 l56 0 -6 58 c-3 31 -7
63 -10 70 -2 7 1 24 6 38 9 22 8 25 -6 20 -12 -5 -15 0 -13 27 1 17 1 49 0 70
-2 52 -27 49 -41 -5z"/>
<path d="M390 255 c-3 -83 -1 -110 17 -188 19 -85 26 -83 12 4 -6 35 -15 104
-19 154 -7 84 -7 86 -10 30z"/>
<path d="M980 217 c0 -4 9 -25 20 -47 14 -27 20 -59 20 -105 l0 -65 95 0 c52
0 95 4 95 9 0 11 -89 111 -98 110 -27 -4 -44 5 -57 31 -9 17 -22 30 -30 30 -7
0 -21 10 -29 22 -9 12 -16 19 -16 15z"/>
<path d="M940 173 c0 -31 20 -93 30 -93 13 0 12 16 0 62 -12 41 -30 60 -30 31z"/>
<path d="M2116 139 c-22 -16 -47 -29 -55 -29 -9 0 -29 -9 -46 -20 -19 -13 -32
-16 -36 -8 -7 10 -36 -7 -102 -59 l-29 -23 85 0 c85 0 85 0 122 37 25 25 39
33 44 24 12 -19 40 -1 61 40 21 41 26 64 11 55 -5 -4 -11 -2 -13 3 -1 6 -21
-3 -42 -20z"/>
<path d="M2388 113 c-8 -10 -32 -39 -52 -66 l-38 -47 29 0 c27 0 32 5 48 48
10 26 22 53 28 60 16 20 2 24 -15 5z"/>
<path d="M2266 75 c-22 -8 -53 -28 -70 -44 l-31 -31 52 0 c46 0 54 4 82 35 49
56 40 66 -33 40z"/>
</g>
</svg>
